<svg width="42" height="42" viewBox="0 0 42 42" fill="none" xmlns="http://www.w3.org/2000/svg">
<path fill-rule="evenodd" clip-rule="evenodd" d="M41.8332 21C41.8332 32.5059 32.5058 41.8333 20.9998 41.8333C9.4939 41.8333 0.166504 32.5059 0.166504 21C0.166504 9.49403 9.4939 0.166626 20.9998 0.166626C32.5058 0.166626 41.8332 9.49403 41.8332 21ZM33.4998 28.4404C33.4998 31.8922 27.9034 35.5833 20.9998 35.5833C14.0963 35.5833 8.49984 31.8922 8.49984 28.4404C8.49984 24.9887 14.0963 23.0833 20.9998 23.0833C27.9034 23.0833 33.4998 24.9887 33.4998 28.4404ZM20.9998 18.9166C24.4516 18.9166 27.2498 16.1184 27.2498 12.6666C27.2498 9.21485 24.4516 6.41663 20.9998 6.41663C17.5481 6.41663 14.7498 9.21485 14.7498 12.6666C14.7498 16.1184 17.5481 18.9166 20.9998 18.9166Z" fill="#D9D9D9"/>
</svg>
